<svg width="270" height="331" viewBox="0 0 270 331" fill="none" xmlns="http://www.w3.org/2000/svg">
<path d="M129.311 135.34L127.982 136.215L228.002 287.305L229.331 286.43L129.311 135.34Z" fill="#2F2E41"/>
<path d="M69.3627 320.6L79.1225 320.599L83.7656 283.064L69.36 283.066L69.3627 320.6Z" fill="#A0616A"/>
<path d="M66.8722 317.422L86.0933 317.421H86.0941C89.3427 317.422 92.4581 318.708 94.7553 320.999C97.0524 323.289 98.343 326.395 98.3432 329.634V330.031L66.8729 330.032L66.8722 317.422Z" fill="#2F2E41"/>
<path d="M5.57536 311.286L14.7468 314.614L31.9871 280.927L18.4507 276.015L5.57536 311.286Z" fill="#A0616A"/>
<path d="M4.32555 307.451L22.3874 314.005L22.3882 314.006C25.4408 315.114 27.9269 317.385 29.2997 320.321C30.6725 323.257 30.8197 326.616 29.7087 329.659L29.5724 330.032L0 319.301L4.32555 307.451Z" fill="#2F2E41"/>
<path d="M66.5797 64.3511L87.2783 70.7011L103.996 98.482L97.6275 131.025L94.4431 159.6V286.599C94.4431 286.599 69.9459 292.949 59.5057 286.599L63.3953 212.781L37.124 291.361L7.66848 280.249L41.1046 169.919C40.5667 161.76 41.9361 153.588 45.1051 146.046C47.9737 139.332 53.0103 133.766 59.4149 130.232V123.882L53.0461 83.4009L66.5797 64.3511Z" fill="#2F2E41"/>
<path d="M82.2684 61.1462C93.0673 61.1462 101.821 52.4179 101.821 41.6511C101.821 30.8842 93.0673 22.1559 82.2684 22.1559C71.4696 22.1559 62.7154 30.8842 62.7154 41.6511C62.7154 52.4179 71.4696 61.1462 82.2684 61.1462Z" fill="#A0616A"/>
<path d="M101.144 36.5679C98.4973 36.0415 95.7517 36.352 93.2904 37.456C90.8291 38.5601 88.7749 40.4028 87.4144 42.7268C86.743 40.2599 82.7516 40.3869 81.2747 42.4763C79.7978 44.5656 80.1245 47.3888 80.6036 49.8998C81.0828 52.4109 81.6251 55.1399 80.4622 57.4179C79.8416 58.4817 78.9495 59.3627 77.8765 59.9711C76.8035 60.5794 75.5881 60.8935 74.3539 60.8815C71.8783 60.8218 69.4714 60.0581 67.4165 58.6804C63.5885 56.3319 60.5275 52.9248 58.6059 48.8737C56.6844 44.8225 55.9851 40.3019 56.5931 35.8617C57.2012 31.4216 59.0904 27.2533 62.0308 23.864C64.9713 20.4748 68.8364 18.0105 73.1557 16.7712C77.9879 15.3847 83.1183 15.5989 88.1388 15.8777C92.2306 15.884 96.2908 16.5926 100.141 17.9723C103.902 19.5589 107.244 22.7147 107.938 26.7266C108.632 30.7384 106.276 37.9231 102.209 38.2757" fill="#2F2E41"/>
<path d="M70.3247 19.5108C72.0975 19.2172 73.8181 18.6681 75.4324 17.8807C76.2307 17.4887 76.9327 16.9264 77.4885 16.2335C78.0443 15.5407 78.4403 14.7344 78.6484 13.8718C78.8121 13.0115 78.6495 12.1213 78.192 11.3739C77.7345 10.6265 77.0148 10.0753 76.1726 9.82723C74.8832 9.72116 73.5876 9.93484 72.4011 10.4492C71.8106 10.7012 71.166 10.8009 70.5268 10.7391C69.8875 10.6774 69.2742 10.4562 68.7432 10.0959C67.6912 9.11288 67.9431 7.33516 67.0441 6.21765C66.5612 5.73295 65.9415 5.40664 65.2678 5.28229C64.5941 5.15794 63.8983 5.24145 63.2734 5.52169C62.0253 6.10086 60.9111 6.93153 60.001 7.96133L55.1826 12.7201C54.2452 13.6459 53.2305 14.7953 53.4688 16.0582C53.6891 16.7076 54.1406 17.2538 54.7379 17.5933C55.3352 17.9328 56.0367 18.0419 56.7093 17.9C58.0719 17.5862 59.3364 16.9436 60.3916 16.0287C58.8805 16.9673 57.6634 18.3095 56.8786 19.9029C56.5038 20.688 56.3539 21.561 56.4454 22.4257C56.5368 23.2904 56.8662 24.1131 57.397 24.8029C59.1177 26.7802 62.38 26.5092 64.8847 25.5226C68.1949 24.2167 71.0609 21.993 73.1436 19.1144" fill="#2F2E41"/>
<path d="M70.3656 13.7412C65.9531 12.7341 61.5939 11.2922 58.5282 8.89024C55.4625 6.48825 53.9359 2.96276 55.6758 0C54.7975 1.50312 54.3732 3.22712 54.4537 4.96484C54.5343 6.70256 55.1164 8.38013 56.13 9.79606C58.7736 13.1896 62.5717 15.5011 66.8075 16.2944C67.7013 16.5706 68.6584 16.5679 69.5507 16.2869C70.3458 15.9337 70.3716 14.8953 69.4452 14.761" fill="#2F2E41"/>
<path d="M125.163 128.503C124.781 128.721 124.417 128.97 124.075 129.246L86.3845 117.524L84.2649 108.198L69.7296 109.547L71.8726 126.422C72.0457 127.785 72.6577 129.055 73.6166 130.042C74.5755 131.029 75.8297 131.679 77.1908 131.895L121.551 138.927C122.197 140.492 123.305 141.823 124.729 142.744C126.153 143.665 127.824 144.132 129.52 144.083C131.216 144.034 132.857 143.471 134.225 142.47C135.593 141.468 136.622 140.075 137.176 138.476C137.731 136.877 137.783 135.147 137.328 133.517C136.872 131.887 135.929 130.434 134.625 129.352C133.321 128.269 131.717 127.608 130.027 127.456C128.337 127.305 126.64 127.67 125.163 128.503Z" fill="#A0616A"/>
<path d="M68.1716 77.8443C68.1716 77.8443 71.5768 68.1429 81.8156 69.0249C92.0545 69.9069 86.4819 108.8 86.4819 108.8L66.5793 135.787L68.1716 77.8443Z" fill="#2F2E41"/>
<path d="M181.899 319.7L174.78 304.511L185.783 299.385L192.902 314.573V314.574C193.581 316.028 193.654 317.692 193.104 319.2C192.554 320.708 191.426 321.936 189.968 322.615C188.51 323.294 186.841 323.369 185.328 322.822C183.816 322.276 182.582 321.153 181.899 319.7Z" fill="#2AA69B"/>
<path d="M157.405 287.2C161.533 287.2 164.879 283.864 164.879 279.749C164.879 275.634 161.533 272.298 157.405 272.298C153.278 272.298 149.932 275.634 149.932 279.749C149.932 283.864 153.278 287.2 157.405 287.2Z" fill="#2AA69B"/>
<path d="M214.637 322.735L207.518 307.547L218.521 302.421L225.639 317.609C226.321 319.063 226.396 320.728 225.846 322.238C225.297 323.747 224.168 324.977 222.709 325.657C221.25 326.336 219.58 326.41 218.066 325.863C216.552 325.315 215.319 324.19 214.637 322.735Z" fill="#2AA69B"/>
<path d="M157.425 294.825C157.82 290.645 159.861 286.793 163.101 284.112C166.34 281.431 170.515 280.141 174.707 280.525L224.761 285.165C226.533 285.332 228.166 286.192 229.303 287.557C230.439 288.922 230.986 290.681 230.823 292.448L230.293 298.127C229.813 303.214 227.329 307.903 223.386 311.166C219.442 314.428 214.362 315.998 209.259 315.531L171.767 312.056C167.575 311.662 163.711 309.627 161.023 306.397C158.334 303.167 157.04 299.005 157.425 294.825Z" fill="#3F3D56"/>
<path d="M166.704 320.165L168.261 303.473L180.353 304.594L178.797 321.286C178.647 322.884 177.866 324.358 176.627 325.382C175.388 326.407 173.792 326.899 172.189 326.751C170.586 326.602 169.107 325.825 168.079 324.59C167.051 323.355 166.556 321.764 166.704 320.165Z" fill="#3F3D56"/>
<path d="M201.791 323.418L203.347 306.725L215.439 307.846L213.883 324.539C213.733 326.137 212.953 327.61 211.714 328.635C210.474 329.66 208.878 330.152 207.275 330.003C205.672 329.855 204.194 329.077 203.165 327.843C202.137 326.608 201.642 325.016 201.791 323.418Z" fill="#3F3D56"/>
<path d="M257.144 261.935C257.826 261.229 258.641 260.664 259.543 260.273C260.444 259.881 261.414 259.671 262.397 259.654C263.38 259.637 264.357 259.813 265.271 260.173C266.185 260.533 267.02 261.069 267.726 261.751C268.432 262.433 268.996 263.247 269.386 264.147C269.777 265.047 269.985 266.014 269.999 266.994C270.014 267.975 269.834 268.948 269.47 269.859C269.107 270.769 268.567 271.6 267.881 272.302L254.234 286.352L243.498 275.985L257.144 261.935Z" fill="#2AA69B"/>
<path d="M224.893 289.115L235.825 277.859C238.483 275.129 242.119 273.562 245.934 273.501C249.749 273.44 253.433 274.89 256.177 277.534L259.01 280.269C262.275 283.428 264.149 287.75 264.222 292.286C264.295 296.821 262.561 301.201 259.399 304.463L250.392 313.736C249.397 314.758 248.036 315.345 246.607 315.368C245.179 315.391 243.8 314.848 242.772 313.858L225.015 296.712C223.99 295.72 223.401 294.363 223.378 292.939C223.355 291.515 223.9 290.139 224.893 289.115Z" fill="#3F3D56"/>
<path d="M258.769 260.262C259.238 259.779 259.799 259.393 260.418 259.125C261.037 258.858 261.703 258.715 262.377 258.704C263.052 258.693 263.722 258.815 264.35 259.062C264.977 259.31 265.549 259.678 266.034 260.146C266.519 260.614 266.906 261.173 267.174 261.79C267.442 262.407 267.586 263.071 267.597 263.744C267.608 264.416 267.485 265.084 267.237 265.71C266.989 266.336 266.62 266.906 266.15 267.39L250.879 283.112L243.498 275.985L258.769 260.262Z" fill="#3F3D56"/>
<path d="M236.513 286.846L255.973 305.636C257.391 307.012 258.204 308.893 258.233 310.865C258.262 312.838 257.506 314.742 256.129 316.159C254.753 317.576 252.868 318.391 250.89 318.425C248.911 318.46 247 317.71 245.575 316.341L226.115 297.551L236.513 286.846Z" fill="#3F3D56"/>
<path d="M256.992 316.805C258.204 315.558 258.623 314.003 257.928 313.332C257.233 312.661 255.687 313.128 254.476 314.375C253.264 315.622 252.845 317.178 253.54 317.849C254.235 318.52 255.781 318.053 256.992 316.805Z" fill="#2AA69B"/>
<path d="M226.993 305.252H230.974V283.027H226.993V305.252Z" fill="#2F2E41"/>
</svg>
