<svg width="308" height="233" viewBox="0 0 308 233" fill="none" xmlns="http://www.w3.org/2000/svg">
<g clip-path="url(#clip0)">
<path d="M123.246 48.3188H122.123V17.7135C122.123 15.3874 121.662 13.084 120.766 10.9349C119.871 8.78576 118.559 6.83303 116.905 5.18818C115.25 3.54333 113.286 2.23856 111.125 1.34837C108.964 0.458179 106.647 1.97092e-06 104.308 0H39.0944C34.3696 -8.95584e-06 29.8383 1.86622 26.4973 5.18814C23.1563 8.51006 21.2794 13.0156 21.2794 17.7135V185.617C21.2794 187.943 21.7402 190.246 22.6354 192.395C23.5307 194.544 24.843 196.497 26.4972 198.142C28.1515 199.787 30.1154 201.092 32.2769 201.982C34.4383 202.872 36.7549 203.33 39.0944 203.33H104.307C109.032 203.33 113.564 201.464 116.905 198.142C120.246 194.82 122.122 190.315 122.123 185.617V70.1042H123.246V48.3188Z" fill="#3F3D56"/>
<path d="M105.026 4.6084H96.5139C96.9053 5.56268 97.0548 6.59804 96.949 7.62327C96.8432 8.6485 96.4855 9.63213 95.9074 10.4875C95.3292 11.3429 94.5484 12.0438 93.6336 12.5284C92.7188 13.0131 91.6983 13.2666 90.6617 13.2667H53.302C52.2655 13.2666 51.2449 13.0131 50.3301 12.5284C49.4154 12.0438 48.6345 11.3429 48.0564 10.4875C47.4782 9.63214 47.1205 8.6485 47.0147 7.62327C46.909 6.59804 47.0584 5.56268 47.4499 4.6084H39.4992C37.7521 4.6084 36.0221 4.95056 34.408 5.61534C32.7938 6.28012 31.3272 7.2545 30.0918 8.48286C28.8564 9.71122 27.8764 11.1695 27.2078 12.7744C26.5393 14.3793 26.1951 16.0995 26.1951 17.8366V185.493C26.1951 187.231 26.5393 188.951 27.2078 190.556C27.8764 192.161 28.8564 193.619 30.0918 194.847C31.3272 196.076 32.7938 197.05 34.4079 197.715C36.0221 198.38 37.7521 198.722 39.4992 198.722H105.026C106.773 198.722 108.503 198.38 110.118 197.715C111.732 197.05 113.198 196.076 114.434 194.847C115.669 193.619 116.649 192.161 117.318 190.556C117.986 188.951 118.33 187.231 118.33 185.493V17.8366C118.33 16.0995 117.986 14.3793 117.318 12.7744C116.649 11.1695 115.669 9.71122 114.434 8.48286C113.198 7.2545 111.732 6.28012 110.118 5.61534C108.503 4.95056 106.773 4.6084 105.026 4.6084Z" fill="white"/>
<path d="M144.148 203.359H0.377351C0.277272 203.359 0.18129 203.32 0.110523 203.249C0.0397563 203.179 0 203.083 0 202.984C0 202.884 0.0397563 202.789 0.110523 202.719C0.18129 202.648 0.277272 202.609 0.377351 202.609H144.148C144.248 202.609 144.344 202.648 144.415 202.719C144.486 202.789 144.526 202.884 144.526 202.984C144.526 203.083 144.486 203.179 144.415 203.249C144.344 203.32 144.248 203.359 144.148 203.359Z" fill="#CBCBCB"/>
<path d="M72.2629 129.7C89.8619 129.7 104.129 115.514 104.129 98.0152C104.129 80.5164 89.8619 66.3309 72.2629 66.3309C54.6638 66.3309 40.397 80.5164 40.397 98.0152C40.397 115.514 54.6638 129.7 72.2629 129.7Z" fill="url(#paint0_linear)"/>
<path d="M69.1049 110.102C68.3881 110.103 67.6902 109.872 67.1167 109.445L67.0811 109.418L59.5922 103.722C59.2453 103.458 58.9543 103.128 58.7356 102.752C58.5169 102.376 58.3749 101.96 58.3177 101.529C58.2604 101.099 58.2891 100.661 58.402 100.241C58.515 99.8212 58.7099 99.4276 58.9758 99.0827C59.2418 98.7379 59.5734 98.4485 59.9518 98.231C60.3302 98.0136 60.7479 97.8724 61.1812 97.8155C61.6145 97.7586 62.0548 97.7871 62.477 97.8994C62.8992 98.0117 63.295 98.2055 63.6419 98.4699L68.4926 102.168L79.955 87.2996C80.2208 86.9549 80.5523 86.6656 80.9306 86.4482C81.3088 86.2309 81.7264 86.0898 82.1595 86.0329C82.5926 85.976 83.0327 86.0045 83.4547 86.1167C83.8768 86.229 84.2724 86.4228 84.6191 86.6871L84.6201 86.6878L84.5489 86.786L84.622 86.6878C85.3215 87.2223 85.7791 88.0109 85.8944 88.8805C86.0098 89.7501 85.7735 90.6297 85.2373 91.3262L71.755 108.807C71.443 109.21 71.042 109.536 70.5829 109.76C70.1239 109.984 69.6191 110.099 69.1079 110.098L69.1049 110.102Z" fill="white"/>
<path d="M261.974 206.473C262.362 205.85 262.818 205.272 263.335 204.749C263.548 204.529 263.773 204.322 264.004 204.121C265.413 202.874 267.131 202.023 268.98 201.655C270.83 201.287 272.745 201.415 274.528 202.027C276.311 202.638 277.898 203.711 279.126 205.135C280.354 206.558 281.178 208.282 281.514 210.127C283.071 204.404 279.019 198.768 274.946 194.438C270.871 190.109 266.213 185.361 266.236 179.43C266.248 176.13 267.871 173.186 270.323 171.003C270.398 170.937 270.474 170.871 270.551 170.807C273.514 168.282 277.326 166.961 281.226 167.108C288.471 167.494 294.796 172.336 299.189 178.078C306.261 187.319 309.359 200.289 304.409 210.808C300.055 220.059 290.768 225.552 281.29 229.969C279.967 230.586 278.646 231.184 277.328 231.763C277.319 231.766 277.31 231.772 277.301 231.774C277.237 231.802 277.174 231.83 277.115 231.858C276.843 231.978 276.57 232.097 276.301 232.215L276.426 232.296L276.815 232.547C276.68 232.466 276.546 232.387 276.411 232.305C276.371 232.281 276.329 232.257 276.289 232.233C271.634 229.456 266.914 226.518 263.698 222.182C260.363 217.68 259.022 211.232 261.974 206.473Z" fill="#F1F1F1"/>
<path d="M293.031 196.019C294.062 198.35 294.745 200.819 295.06 203.347C295.307 205.6 295.214 207.878 294.784 210.105C293.86 214.68 291.844 218.968 288.906 222.607C286.689 225.371 284.13 227.844 281.29 229.969C279.967 230.586 278.646 231.184 277.328 231.764C277.319 231.766 277.31 231.772 277.301 231.774C277.237 231.802 277.174 231.83 277.114 231.858C276.842 231.978 276.57 232.097 276.301 232.215L276.425 232.296L276.815 232.547C276.68 232.466 276.546 232.387 276.411 232.305C276.371 232.281 276.329 232.258 276.289 232.233C277.313 228.67 277.464 224.915 276.728 221.282C275.992 217.649 274.391 214.245 272.06 211.354C269.715 208.5 266.726 206.237 263.335 204.749C263.548 204.53 263.773 204.323 264.004 204.121C265.31 204.718 266.561 205.428 267.741 206.243C271.963 209.144 275.133 213.32 276.782 218.152C278.255 222.535 278.438 227.246 277.312 231.73C277.546 231.578 277.78 231.422 278.009 231.267C282.345 228.359 286.342 224.867 289.352 220.585C291.948 216.965 293.61 212.767 294.19 208.359C294.767 203.544 293.556 198.808 291.393 194.512C289.006 189.915 285.997 185.665 282.452 181.879C278.89 177.988 274.863 174.546 270.461 171.628C270.362 171.561 270.292 171.459 270.266 171.343C270.241 171.227 270.261 171.105 270.323 171.003C270.37 170.911 270.452 170.84 270.551 170.807C270.601 170.795 270.654 170.793 270.705 170.804C270.756 170.814 270.804 170.835 270.845 170.867C271.389 171.227 271.928 171.591 272.46 171.966C276.893 175.087 280.92 178.744 284.447 182.852C287.854 186.813 290.956 191.213 293.031 196.019Z" fill="white"/>
<path d="M198.125 14.7119C201.863 14.7119 204.893 11.6993 204.893 7.98303C204.893 4.26677 201.863 1.25415 198.125 1.25415C194.388 1.25415 191.358 4.26677 191.358 7.98303C191.358 11.6993 194.388 14.7119 198.125 14.7119Z" fill="#F1F1F1"/>
<path d="M282.275 104.76C284.554 104.76 286.401 102.924 286.401 100.658C286.401 98.392 284.554 96.5553 282.275 96.5553C279.996 96.5553 278.149 98.392 278.149 100.658C278.149 102.924 279.996 104.76 282.275 104.76Z" fill="#F1F1F1"/>
<path d="M161.522 116.016C163.801 116.016 165.648 114.179 165.648 111.914C165.648 109.648 163.801 107.811 161.522 107.811C159.244 107.811 157.396 109.648 157.396 111.914C157.396 114.179 159.244 116.016 161.522 116.016Z" fill="#F1F1F1"/>
<path d="M163.852 233H307.623C307.723 233 307.819 232.961 307.889 232.89C307.96 232.82 308 232.724 308 232.625C308 232.525 307.96 232.43 307.889 232.36C307.819 232.289 307.723 232.25 307.623 232.25H163.852C163.752 232.25 163.656 232.289 163.585 232.36C163.514 232.43 163.474 232.525 163.474 232.625C163.474 232.724 163.514 232.82 163.585 232.89C163.656 232.961 163.752 233 163.852 233Z" fill="#CBCBCB"/>
<path d="M291.757 36.2575C291.946 34.9248 291.636 33.5696 290.887 32.4486C290.138 31.3276 289.002 30.5188 287.693 30.1753C286.384 29.8319 284.994 29.9777 283.786 30.5851C282.578 31.1926 281.637 32.2195 281.139 33.4712L269.473 46.7699L272.896 56.2763L284.629 40.7373C285.395 40.9811 286.205 41.0551 287.002 40.954C287.8 40.8529 288.565 40.5791 289.245 40.152C289.924 39.7249 290.501 39.1548 290.935 38.482C291.369 37.8091 291.65 37.0498 291.757 36.2575Z" fill="#FFB7B7"/>
<path d="M243.396 88.0031L282.124 46.9077L276.9 38.6503L228.326 79.4962L243.396 88.0031Z" fill="#3F3D56"/>
<path d="M234.753 63.0339C242.256 63.0339 248.338 56.9865 248.338 49.5266C248.338 42.0668 242.256 36.0193 234.753 36.0193C227.251 36.0193 221.169 42.0668 221.169 49.5266C221.169 56.9865 227.251 63.0339 234.753 63.0339Z" fill="#2F2E41"/>
<path d="M235.845 41.8961C238.768 38.9487 242.306 36.6742 246.208 35.2329C248.714 34.3101 251.44 33.7399 254.059 34.264C256.678 34.788 259.155 36.5895 259.886 39.1445C260.483 41.2338 259.866 43.4833 258.939 45.45C258.012 47.4167 256.774 49.2404 256.024 51.2806C255.259 53.3622 255.029 55.6008 255.355 57.7933C255.681 59.9858 256.552 62.0626 257.89 63.8353C259.228 65.608 260.989 67.0205 263.015 67.9444C265.042 68.8683 267.268 69.2745 269.492 69.126C266.918 69.4691 264.546 70.6715 262.031 71.3115C259.516 71.9515 256.547 71.9081 254.678 70.1164C252.7 68.2207 252.66 65.1385 252.756 62.4088C252.898 58.351 253.04 54.2932 253.183 50.2354C253.255 48.166 253.317 46.0303 252.566 44.0988C251.816 42.1673 250.032 40.476 247.95 40.4936C246.371 40.5069 244.974 41.4576 243.709 42.3951C242.443 43.3326 241.103 44.3329 239.531 44.4724C237.959 44.6118 236.164 43.455 236.282 41.89L235.845 41.8961Z" fill="#2F2E41"/>
<path d="M183.158 140.221C181.853 140.582 180.462 140.454 179.246 139.862C178.031 139.27 177.075 138.255 176.562 137.01C176.049 135.765 176.012 134.375 176.46 133.105C176.908 131.835 177.809 130.773 178.992 130.119L190.728 116.881L200.654 119.013L186.693 132.609C187.036 133.332 187.216 134.121 187.219 134.921C187.223 135.72 187.05 136.51 186.713 137.236C186.376 137.962 185.883 138.605 185.268 139.121C184.654 139.637 183.934 140.012 183.158 140.221H183.158Z" fill="#FFB7B7"/>
<path d="M221.769 92.8267L192.518 129.334L183.602 125.264L217.983 72.0432L221.769 92.8267Z" fill="#3F3D56"/>
<path d="M198.429 203.063L191.458 202.954L192.297 226.579H198.428L198.429 203.063Z" fill="#FFB7B7"/>
<path d="M199.993 224.589L187.917 224.588H187.916C185.875 224.588 183.918 225.395 182.475 226.83C181.032 228.265 180.221 230.211 180.221 232.24V232.489L199.992 232.489L199.993 224.589Z" fill="#2F2E41"/>
<path d="M244.586 196.797L236.971 201.658L252.204 219.88L257.364 216.586L244.586 196.797Z" fill="#FFB7B7"/>
<path d="M257.598 214.071L247.436 220.558L247.436 220.558C245.719 221.654 244.51 223.384 244.075 225.367C243.64 227.35 244.015 229.423 245.118 231.131L245.253 231.34L261.891 220.719L257.598 214.071Z" fill="#2F2E41"/>
<path d="M247.299 124.657C247.299 124.657 230.379 68.7792 224.941 68.0241C219.503 67.269 210.742 82.3616 210.742 82.3616C199.382 96.7724 187.669 143.452 187.669 143.452C187.669 143.452 207.196 144.667 221.47 152.218C235.744 159.769 252.589 151.836 252.589 151.836L247.299 124.657Z" fill="#3F3D56"/>
<path opacity="0.1" d="M247.299 124.657C247.299 124.657 230.379 68.7792 224.941 68.0241C219.503 67.269 212.967 82.5148 212.967 82.5148C207.307 105.777 187.669 143.452 187.669 143.452C187.669 143.452 207.196 144.667 221.47 152.218C235.744 159.769 252.589 151.836 252.589 151.836L247.299 124.657Z" fill="black"/>
<path d="M233.417 107.939V136.017L236.74 176.69L253.344 207.457L245.42 213.085L222.778 183.819L213.823 154.76L199.76 219.088L189.194 218.337L196.532 129.148L210.457 104.043L233.417 107.939Z" fill="#2F2E41"/>
<path d="M216.357 80.7806C211.074 86.0335 215.98 91.6615 215.98 91.6615L209.942 105.169L233.716 111.547L242.023 74.6355L236.363 68.6323C225.043 68.2571 225.036 68.0238 225.036 68.0238C223.053 69.9538 216.357 80.7806 216.357 80.7806Z" fill="url(#paint1_linear)"/>
<path d="M242.981 70.8116C241.901 70.0191 240.674 69.4475 239.37 69.1299C238.067 68.8124 236.713 68.7551 235.387 68.9614C234.061 69.1678 232.79 69.6337 231.646 70.3321C230.503 71.0305 229.51 71.9475 228.725 73.0302C222.749 81.3042 217.223 94.6647 224.837 111.328C237.063 138.083 247.702 151.78 252.027 151.778C252.216 151.78 252.404 151.751 252.583 151.691C255.245 150.793 259.094 146.314 259.791 142.367C260.041 140.954 259.981 138.986 258.282 137.635C253.401 133.753 244.638 121.665 241.904 105.756C240.393 96.9652 243.323 88.9575 246.047 83.7881C247.197 81.6491 247.534 79.1695 246.995 76.8038C246.456 74.4381 245.077 72.3449 243.112 70.9077L242.981 70.8116Z" fill="#3F3D56"/>
<path d="M235.452 61.7069C240.298 59.0729 242.079 53.0316 239.43 48.2132C236.781 43.3949 230.705 41.6241 225.859 44.258C221.013 46.892 219.232 52.9333 221.881 57.7516C224.53 62.57 230.606 64.3408 235.452 61.7069Z" fill="#FFB7B7"/>
<path d="M216.592 52.2307H231.032L231.18 50.1694L231.92 52.2307H234.144L234.437 48.1453L235.904 52.2307H240.207V52.0283C240.203 49.1841 239.066 46.4573 237.043 44.4461C235.02 42.435 232.278 41.3037 229.417 41.3005H227.381C224.521 41.3037 221.779 42.435 219.756 44.4461C217.733 46.4573 216.595 49.1841 216.592 52.0283V52.2307Z" fill="#2F2E41"/>
<path d="M238.025 59.6399L244.187 57.6518V42.7729H232.548L232.836 43.059C236.845 47.0402 241.304 61.1651 238.025 59.6399Z" fill="#2F2E41"/>
</g>
<defs>
<linearGradient id="paint0_linear" x1="72.2629" y1="66.3309" x2="72.2629" y2="129.7" gradientUnits="userSpaceOnUse">
<stop offset="0.358631" stop-color="#2AA69B"/>
<stop offset="1" stop-color="#24827A"/>
</linearGradient>
<linearGradient id="paint1_linear" x1="225.983" y1="68.0238" x2="225.983" y2="111.547" gradientUnits="userSpaceOnUse">
<stop offset="0.358631" stop-color="#2AA69B"/>
<stop offset="1" stop-color="#24827A"/>
</linearGradient>
<clipPath id="clip0">
<rect width="308" height="233" fill="white"/>
</clipPath>
</defs>
</svg>
