<svg width="306" height="205" viewBox="0 0 306 205" fill="none" xmlns="http://www.w3.org/2000/svg">
<g clip-path="url(#clip0)">
<path d="M296.977 198.536H8.54565V199.156H296.977V198.536Z" fill="#3F3D56"/>
<path d="M31.2315 86.0341L30.9897 86.6052L296.645 198.794L296.887 198.223L31.2315 86.0341Z" fill="#3F3D56"/>
<path d="M296.977 85.9827H8.54565V86.6028H296.977V85.9827Z" fill="#3F3D56"/>
<path d="M257.857 99.4704C257.897 112.591 255.347 125.591 250.354 137.727C245.361 149.863 238.022 160.897 228.756 170.199C227.735 171.226 226.691 172.228 225.624 173.207C224.338 174.391 223.02 175.54 221.668 176.652C221.41 176.866 221.153 177.077 220.892 177.284C215.553 181.605 209.77 185.35 203.642 188.456C203.279 188.639 202.915 188.822 202.549 189.002C201.968 189.287 201.382 189.566 200.795 189.839C179.073 199.933 154.37 201.608 131.481 194.536C91.4083 182.115 62.2578 144.253 62.2578 99.4704C62.2578 44.5859 106.044 0.0947266 160.057 0.0947266C214.071 0.0947266 257.857 44.5859 257.857 99.4704Z" fill="url(#paint0_linear)"/>
<path d="M181.832 78.6234L181.91 78.6204L181.604 77.9488C181.26 76.9975 180.839 76.0756 180.347 75.192L171.363 55.4935C171.076 54.8648 170.612 54.3333 170.027 53.9644C169.442 53.5955 168.762 53.4051 168.071 53.4166L156.694 53.6058C155.958 53.6181 155.245 53.8581 154.651 54.2928C154.058 54.7275 153.615 55.3354 153.382 56.0325L146.23 77.4852C145.995 78.086 145.79 78.6985 145.618 79.3203L145.375 80.0487L145.433 80.0464C144.77 82.8756 144.77 85.8193 145.434 88.6482C146.098 91.4771 147.406 94.1147 149.258 96.3554C151.11 98.5962 153.456 100.379 156.111 101.566C158.767 102.753 161.661 103.312 164.568 103.198C167.475 103.084 170.317 102.302 172.871 100.911C175.426 99.5206 177.624 97.5596 179.295 95.1812C180.966 92.8027 182.064 90.071 182.504 87.1989C182.945 84.3269 182.715 81.3921 181.832 78.6234H181.832Z" fill="#3F3D56"/>
<path d="M160.63 58.4231L157.05 77.9677L157.454 78.0415L161.034 58.4969L160.63 58.4231Z" fill="url(#paint1_linear)"/>
<path d="M164.932 58.3512L164.531 58.4384L168.757 77.8538L169.158 77.7667L164.932 58.3512Z" fill="url(#paint2_linear)"/>
<path d="M155.454 43.9862L170.032 43.7436C170.141 43.7418 170.246 43.7833 170.325 43.8589C170.403 43.9346 170.448 44.0382 170.45 44.1469C170.451 44.2557 170.41 44.3607 170.334 44.4389C170.259 44.5171 170.155 44.5621 170.046 44.5639L155.468 44.8064C155.414 44.8073 155.36 44.7976 155.31 44.7778C155.26 44.758 155.214 44.7286 155.175 44.6911C155.136 44.6537 155.105 44.609 155.084 44.5596C155.063 44.5102 155.051 44.457 155.05 44.4031C155.049 44.3493 155.059 44.2958 155.079 44.2457C155.099 44.1956 155.128 44.1499 155.166 44.1111C155.203 44.0724 155.248 44.0415 155.297 44.02C155.347 43.9986 155.4 43.9871 155.454 43.9862Z" fill="#3F3D56"/>
<path d="M155.608 47.0603L170.186 46.8178C170.295 46.816 170.4 46.8575 170.479 46.9331C170.557 47.0087 170.602 47.1123 170.604 47.2211C170.605 47.3299 170.564 47.4349 170.488 47.5131C170.412 47.5913 170.309 47.6362 170.2 47.638L155.622 47.8806C155.513 47.8824 155.407 47.8409 155.329 47.7653C155.251 47.6897 155.206 47.5861 155.204 47.4773C155.202 47.3685 155.244 47.2635 155.319 47.1853C155.395 47.1071 155.499 47.0622 155.608 47.0603Z" fill="#3F3D56"/>
<path d="M155.762 50.1344L170.34 49.8919C170.449 49.8901 170.554 49.9316 170.633 50.0072C170.711 50.0828 170.756 50.1864 170.758 50.2952C170.76 50.4039 170.718 50.509 170.642 50.5872C170.567 50.6654 170.463 50.7103 170.354 50.7121L155.776 50.9547C155.667 50.9565 155.561 50.915 155.483 50.8394C155.405 50.7638 155.36 50.6602 155.358 50.5514C155.356 50.4426 155.398 50.3376 155.474 50.2594C155.549 50.1812 155.653 50.1363 155.762 50.1344Z" fill="#3F3D56"/>
<path d="M162.694 40.9396C159.803 40.9877 157.485 42.6361 157.518 44.6216L167.99 44.4473C167.957 42.4619 165.586 40.8914 162.694 40.9396Z" fill="#3F3D56"/>
<path d="M164.306 80.8542C164.877 80.8928 165.418 81.1238 165.841 81.5095C165.949 81.5991 166.056 81.6931 166.163 81.7873C166.5 82.1393 166.914 82.4097 167.373 82.5779C168.376 82.8513 169.366 82.059 170.203 81.2477L170.489 81.5418C169.57 82.434 168.468 83.3014 167.264 82.9737C166.745 82.7908 166.274 82.4899 165.891 82.0946C165.787 82.0032 165.684 81.9121 165.579 81.8251C165.236 81.5409 164.573 81.0986 163.984 81.328C163.739 81.447 163.522 81.6146 163.344 81.8205C163.207 81.9649 163.059 82.0983 162.901 82.2196C162.577 82.449 162.193 82.5776 161.796 82.5894C161.4 82.6012 161.008 82.4956 160.672 82.2858C160.551 82.2052 160.434 82.118 160.323 82.0246C160.14 81.8436 159.913 81.7143 159.663 81.6497C159.314 81.6008 158.997 81.8497 158.661 82.1128C158.343 82.4213 157.937 82.6229 157.499 82.6894C157.484 82.6901 157.469 82.6907 157.454 82.6909C156.636 82.7045 156.117 81.887 155.796 81.2655L156.161 81.0775C156.597 81.9224 157.018 82.3076 157.477 82.2797C157.829 82.2123 158.153 82.0419 158.408 81.7901C158.796 81.4856 159.199 81.1707 159.72 81.2435C160.045 81.3141 160.343 81.4742 160.581 81.7058C160.681 81.7896 160.785 81.868 160.894 81.9406C161.161 82.1041 161.47 82.1862 161.784 82.1769C162.097 82.1676 162.401 82.0673 162.659 81.8882C162.799 81.7793 162.932 81.6598 163.054 81.5306C163.27 81.2829 163.536 81.0837 163.834 80.9459C163.985 80.8874 164.144 80.8564 164.306 80.8542Z" fill="url(#paint3_linear)"/>
<path d="M163.157 0H162.73V40.923H163.157V0Z" fill="#3F3D56"/>
<path d="M291.977 70.9026C289.375 80.5101 280.461 86.4603 280.461 86.4603C280.461 86.4603 275.766 76.8336 278.368 67.2261C280.971 57.6185 289.885 51.6683 289.885 51.6683C289.885 51.6683 294.579 61.295 291.977 70.9026Z" fill="url(#paint4_linear)"/>
<path d="M268.302 70.9026C270.904 80.5101 279.818 86.4603 279.818 86.4603C279.818 86.4603 284.513 76.8336 281.911 67.2261C279.308 57.6185 270.394 51.6683 270.394 51.6683C270.394 51.6683 265.699 61.295 268.302 70.9026Z" fill="url(#paint5_linear)"/>
<path d="M272.126 68.8379C279.267 75.7804 280.139 86.4526 280.139 86.4526C280.139 86.4526 269.434 85.8688 262.292 78.9263C255.151 71.9839 254.279 61.3117 254.279 61.3117C254.279 61.3117 264.985 61.8955 272.126 68.8379Z" fill="#3F3D56"/>
<path d="M288.153 68.8379C281.012 75.7804 280.139 86.4526 280.139 86.4526C280.139 86.4526 290.845 85.8688 297.987 78.9263C305.128 71.9839 306 61.3117 306 61.3117C306 61.3117 295.294 61.8955 288.153 68.8379Z" fill="#3F3D56"/>
<path d="M37.6981 183.146C35.0956 192.753 26.1816 198.704 26.1816 198.704C26.1816 198.704 21.487 189.077 24.0895 179.469C26.6919 169.862 35.6059 163.912 35.6059 163.912C35.6059 163.912 40.3005 173.538 37.6981 183.146Z" fill="url(#paint6_linear)"/>
<path d="M14.023 183.146C16.6254 192.753 25.5394 198.704 25.5394 198.704C25.5394 198.704 30.234 189.077 27.6315 179.469C25.0291 169.862 16.1151 163.912 16.1151 163.912C16.1151 163.912 11.4205 173.538 14.023 183.146Z" fill="url(#paint7_linear)"/>
<path d="M17.8471 181.081C24.9883 188.024 25.8605 198.696 25.8605 198.696C25.8605 198.696 15.1546 198.112 8.01342 191.17C0.87224 184.227 0 173.555 0 173.555C0 173.555 10.7059 174.139 17.8471 181.081Z" fill="#3F3D56"/>
<path d="M33.874 181.081C26.7328 188.024 25.8605 198.696 25.8605 198.696C25.8605 198.696 36.5664 198.112 43.7076 191.17C50.8488 184.227 51.721 173.555 51.721 173.555C51.721 173.555 41.0151 174.139 33.874 181.081Z" fill="#3F3D56"/>
<path d="M208.124 94.3907C211.423 94.3907 214.096 91.7206 214.096 88.4268C214.096 85.133 211.423 82.4629 208.124 82.4629C204.826 82.4629 202.153 85.133 202.153 88.4268C202.153 91.7206 204.826 94.3907 208.124 94.3907Z" fill="#2F2E41"/>
<path d="M201.726 85.8711C201.726 84.4001 202.271 82.9812 203.255 81.8868C204.239 80.7925 205.594 80.1 207.058 79.9424C206.224 79.8515 205.38 79.937 204.582 80.1934C203.783 80.4499 203.047 80.8715 202.423 81.4309C201.798 81.9902 201.299 82.6747 200.957 83.4398C200.615 84.2048 200.438 85.0332 200.438 85.8711C200.438 86.7089 200.615 87.5373 200.957 88.3024C201.299 89.0674 201.798 89.7519 202.423 90.3113C203.047 90.8706 203.783 91.2922 204.582 91.5487C205.38 91.8052 206.224 91.8907 207.058 91.7997C205.594 91.6421 204.239 90.9497 203.255 89.8553C202.271 88.761 201.726 87.342 201.726 85.8711Z" fill="#2F2E41"/>
<path d="M202.153 88.4268C202.153 88.4268 201.225 92.6867 207.021 94.3907L202.153 88.4268Z" fill="url(#paint8_linear)"/>
<path d="M210.594 128.937C221.667 128.937 230.642 119.973 230.642 108.915C230.642 97.8572 221.667 88.8932 210.594 88.8932C199.522 88.8932 190.546 97.8572 190.546 108.915C190.546 119.973 199.522 128.937 210.594 128.937Z" fill="#2F2E41"/>
<path d="M221.668 176.651C221.41 176.865 221.153 177.076 220.892 177.284C215.553 181.605 209.77 185.35 203.642 188.456C203.279 188.639 202.915 188.821 202.549 189.001C201.969 189.287 201.382 189.566 200.795 189.838L190.518 186.418L190.636 183.96V183.95L191.083 174.574L191.235 171.368L221.668 176.651Z" fill="#A0616A"/>
<path d="M202.549 189.002C201.968 189.287 201.382 189.566 200.795 189.839C196.78 191.713 192.64 193.306 188.404 194.604C188.382 194.542 188.37 194.478 188.367 194.412L190.518 183.91L190.636 183.96L202.549 189.002Z" fill="#2F2E41"/>
<path d="M205.59 130.157C212.922 130.157 218.866 124.221 218.866 116.898C218.866 109.575 212.922 103.639 205.59 103.639C198.257 103.639 192.313 109.575 192.313 116.898C192.313 124.221 198.257 130.157 205.59 130.157Z" fill="#A0616A"/>
<path d="M216.355 117.615C216.355 117.615 218.507 128.365 222.455 130.874L200.566 156.675L192.313 148.791L198.413 138.041C198.413 138.041 205.231 134.099 203.078 128.724L216.355 117.615Z" fill="#A0616A"/>
<path d="M242.33 153.22C238.44 159.358 233.888 165.051 228.756 170.199C228.536 165.393 228.058 161.431 227.12 160.259C227.118 160.258 227.115 160.257 227.114 160.256L215.636 156.674C215.636 156.674 218.147 133.023 224.248 131.95C224.248 131.95 225.133 132.13 226.508 132.545C230.942 133.878 240.461 137.636 241.83 145.565C242.22 148.097 242.387 150.659 242.33 153.22Z" fill="#A0616A"/>
<path d="M198.413 138.04C198.413 138.04 187.649 137.682 180.831 146.282C174.013 154.883 157.508 161.333 157.508 161.333L116.243 177.459C116.243 177.459 108.708 164.2 104.043 168.858C99.3782 173.517 112.655 185.343 118.755 183.909C124.855 182.476 161.813 171.367 161.813 171.367L191.237 158.108L198.413 138.04Z" fill="#A0616A"/>
<path d="M227.12 160.258L225.624 173.207C224.338 174.391 223.02 175.539 221.668 176.652C221.41 176.865 221.153 177.076 220.892 177.284C210.531 174.112 194.297 174.466 191.083 174.574C190.717 174.583 190.518 174.593 190.518 174.593L190.161 167.067C186.718 165.923 185.588 163.421 185.557 160.668C185.504 155.676 189.084 149.865 189.084 149.865C189.726 149.223 194.53 140.129 195.523 138.244C195.638 138.024 195.703 137.903 195.703 137.903L200.009 136.83C200.009 136.83 199.997 136.864 199.972 136.926C199.587 138.002 196.24 147.735 202.003 148.073C207.672 148.408 220.004 132.508 221.702 130.278C221.83 130.111 221.898 130.021 221.898 130.021L226.564 132.529C226.546 132.536 226.527 132.539 226.508 132.545C223.658 133.335 221.019 140.191 221.019 140.191C213.577 153.288 226.788 160.091 227.114 160.255C227.115 160.257 227.118 160.258 227.12 160.258Z" fill="#D0CDE1"/>
<path d="M206.311 101.335C199.244 101.335 193.514 104.672 193.514 108.79C193.514 110.632 194.666 112.315 196.567 113.616L199.03 111.834L198.361 114.626C198.639 114.755 198.922 114.879 199.218 114.995L202.899 110.707V115.974C204.027 116.155 205.168 116.245 206.311 116.244C213.378 116.244 219.108 112.907 219.108 108.79C219.108 104.672 213.379 101.335 206.311 101.335Z" fill="#2F2E41"/>
<path d="M232.524 103.708C235.823 103.708 238.496 101.038 238.496 97.7438C238.496 94.45 235.823 91.7799 232.524 91.7799C229.226 91.7799 226.553 94.45 226.553 97.7438C226.553 101.038 229.226 103.708 232.524 103.708Z" fill="#2F2E41"/>
<path d="M226.126 95.1882C226.126 93.7172 226.671 92.2982 227.655 91.2039C228.639 90.1096 229.994 89.4171 231.458 89.2595C231.245 89.2364 231.032 89.2247 230.818 89.2242C230.006 89.2231 229.203 89.3873 228.456 89.7068C227.71 90.0263 227.037 90.4945 226.478 91.0826C225.919 91.6707 225.486 92.3665 225.206 93.1275C224.925 93.8884 224.803 94.6984 224.846 95.5081C224.89 96.3178 225.098 97.1102 225.459 97.8367C225.819 98.5632 226.325 99.2086 226.943 99.7336C227.562 100.259 228.282 100.652 229.058 100.89C229.834 101.128 230.651 101.205 231.458 101.117C229.994 100.959 228.639 100.267 227.655 99.1724C226.671 98.0781 226.126 96.6591 226.126 95.1882Z" fill="#2F2E41"/>
<path d="M226.553 97.7439C226.553 97.7439 225.625 102.004 231.421 103.708L226.553 97.7439Z" fill="url(#paint9_linear)"/>
<path d="M219.405 118.152C219.977 118.152 220.441 117.11 220.441 115.823C220.441 114.537 219.977 113.494 219.405 113.494C218.832 113.494 218.368 114.537 218.368 115.823C218.368 117.11 218.832 118.152 219.405 118.152Z" fill="#A0616A"/>
<path d="M104.997 124.834L89.2629 128.641L89.2116 128.653L87.5013 130.199L87.009 130.644L85.9536 130.453L84.0854 130.116L85.3873 125.728L85.6314 117.358L84.7364 112.239L89.6998 108.826C89.6998 108.826 99.3825 108.257 104.997 124.834Z" fill="#D0CDE1"/>
<path opacity="0.1" d="M89.2628 128.641C89.0497 129.095 89.4964 128.796 89.2523 129.263L86.974 129.994L85.9536 130.453L84.0854 130.116L85.3873 125.728L85.6314 117.358L84.7364 112.239L89.6998 108.826C89.6998 108.826 95.0269 116.36 89.2628 128.641Z" fill="black"/>
<path d="M123.549 112.807C123.549 112.807 102.881 122.396 94.5005 123.859C86.1196 125.321 86.852 133.691 86.852 133.691L133.801 126.378C133.801 126.378 132.174 118.821 123.549 112.807Z" fill="#D0CDE1"/>
<path d="M83.6786 111.182C83.6786 111.182 87.2587 119.877 83.2717 130.685L87.9097 132.798L89.6998 130.685L89.7404 130.482L84.8177 130.035C84.8177 130.035 88.8861 119.146 85.55 111.589C85.55 111.589 84.8177 109.964 83.6786 111.182Z" fill="url(#paint10_linear)"/>
<path d="M151.946 175.621C133.638 171.558 116.592 179.969 116.592 179.969L116.545 179.927L109.757 173.874L83.231 130.644L89.6997 130.685C107.682 119.958 132.987 121.421 132.987 121.421C143.89 133.773 151.946 175.621 151.946 175.621Z" fill="#3F3D56"/>
<path opacity="0.1" d="M116.545 179.927L109.757 173.874L83.231 130.644L89.6997 130.685C89.6997 130.685 115.482 164.691 116.545 179.927Z" fill="black"/>
<path d="M119.525 146.197C125.067 144.499 128.684 140.271 127.603 136.753C126.522 133.234 121.154 131.759 115.612 133.456C110.069 135.154 106.453 139.382 107.533 142.9C108.614 146.419 113.982 147.895 119.525 146.197Z" fill="#D0CDE1"/>
<path d="M8.62916 91.8265C11.8871 91.8265 14.5282 89.1889 14.5282 85.9353C14.5282 82.6817 11.8871 80.0441 8.62916 80.0441C5.37122 80.0441 2.73013 82.6817 2.73013 85.9353C2.73013 89.1889 5.37122 91.8265 8.62916 91.8265Z" fill="#3F3D56"/>
<path d="M296.75 205C300.008 205 302.649 202.363 302.649 199.109C302.649 195.855 300.008 193.218 296.75 193.218C293.492 193.218 290.851 195.855 290.851 199.109C290.851 202.363 293.492 205 296.75 205Z" fill="#3F3D56"/>
<path d="M34.3986 91.2064C36.9706 91.2064 39.0557 89.124 39.0557 86.5554C39.0557 83.9867 36.9706 81.9044 34.3986 81.9044C31.8265 81.9044 29.7415 83.9867 29.7415 86.5554C29.7415 89.124 31.8265 91.2064 34.3986 91.2064Z" fill="url(#paint11_linear)"/>
<path d="M296.75 91.2064C299.322 91.2064 301.407 89.124 301.407 86.5554C301.407 83.9867 299.322 81.9044 296.75 81.9044C294.178 81.9044 292.093 83.9867 292.093 86.5554C292.093 89.124 294.178 91.2064 296.75 91.2064Z" fill="url(#paint12_linear)"/>
<path d="M8.62917 203.14C11.2012 203.14 13.2863 201.057 13.2863 198.489C13.2863 195.92 11.2012 193.838 8.62917 193.838C6.05711 193.838 3.97205 195.92 3.97205 198.489C3.97205 201.057 6.05711 203.14 8.62917 203.14Z" fill="url(#paint13_linear)"/>
</g>
<defs>
<linearGradient id="paint0_linear" x1="160.058" y1="0.0947266" x2="160.058" y2="198.846" gradientUnits="userSpaceOnUse">
<stop offset="0.358631" stop-color="#2AA69B"/>
<stop offset="1" stop-color="#24827A"/>
</linearGradient>
<linearGradient id="paint1_linear" x1="158.84" y1="68.1954" x2="159.244" y2="68.2694" gradientUnits="userSpaceOnUse">
<stop offset="0.358631" stop-color="#2AA69B"/>
<stop offset="1" stop-color="#24827A"/>
</linearGradient>
<linearGradient id="paint2_linear" x1="164.731" y1="58.3948" x2="168.947" y2="77.8125" gradientUnits="userSpaceOnUse">
<stop offset="0.358631" stop-color="#2AA69B"/>
<stop offset="1" stop-color="#24827A"/>
</linearGradient>
<linearGradient id="paint3_linear" x1="163.142" y1="80.8542" x2="163.142" y2="83.0444" gradientUnits="userSpaceOnUse">
<stop offset="0.358631" stop-color="#2AA69B"/>
<stop offset="1" stop-color="#24827A"/>
</linearGradient>
<linearGradient id="paint4_linear" x1="285.173" y1="51.6683" x2="285.173" y2="86.4603" gradientUnits="userSpaceOnUse">
<stop offset="0.358631" stop-color="#2AA69B"/>
<stop offset="1" stop-color="#24827A"/>
</linearGradient>
<linearGradient id="paint5_linear" x1="275.106" y1="51.6683" x2="275.106" y2="86.4603" gradientUnits="userSpaceOnUse">
<stop offset="0.358631" stop-color="#2AA69B"/>
<stop offset="1" stop-color="#24827A"/>
</linearGradient>
<linearGradient id="paint6_linear" x1="30.8938" y1="163.912" x2="30.8938" y2="198.704" gradientUnits="userSpaceOnUse">
<stop offset="0.358631" stop-color="#2AA69B"/>
<stop offset="1" stop-color="#24827A"/>
</linearGradient>
<linearGradient id="paint7_linear" x1="20.8273" y1="163.912" x2="20.8273" y2="198.704" gradientUnits="userSpaceOnUse">
<stop offset="0.358631" stop-color="#2AA69B"/>
<stop offset="1" stop-color="#24827A"/>
</linearGradient>
<linearGradient id="paint8_linear" x1="204.559" y1="88.4268" x2="204.559" y2="94.3907" gradientUnits="userSpaceOnUse">
<stop offset="0.358631" stop-color="#2AA69B"/>
<stop offset="1" stop-color="#24827A"/>
</linearGradient>
<linearGradient id="paint9_linear" x1="228.959" y1="97.7439" x2="228.959" y2="103.708" gradientUnits="userSpaceOnUse">
<stop offset="0.358631" stop-color="#2AA69B"/>
<stop offset="1" stop-color="#24827A"/>
</linearGradient>
<linearGradient id="paint10_linear" x1="86.5061" y1="110.729" x2="86.5061" y2="132.798" gradientUnits="userSpaceOnUse">
<stop offset="0.358631" stop-color="#2AA69B"/>
<stop offset="1" stop-color="#24827A"/>
</linearGradient>
<linearGradient id="paint11_linear" x1="34.3986" y1="81.9044" x2="34.3986" y2="91.2064" gradientUnits="userSpaceOnUse">
<stop offset="0.358631" stop-color="#2AA69B"/>
<stop offset="1" stop-color="#24827A"/>
</linearGradient>
<linearGradient id="paint12_linear" x1="296.75" y1="81.9044" x2="296.75" y2="91.2064" gradientUnits="userSpaceOnUse">
<stop offset="0.358631" stop-color="#2AA69B"/>
<stop offset="1" stop-color="#24827A"/>
</linearGradient>
<linearGradient id="paint13_linear" x1="8.62917" y1="193.838" x2="8.62917" y2="203.14" gradientUnits="userSpaceOnUse">
<stop offset="0.358631" stop-color="#2AA69B"/>
<stop offset="1" stop-color="#24827A"/>
</linearGradient>
<clipPath id="clip0">
<rect width="306" height="205" fill="white"/>
</clipPath>
</defs>
</svg>
