<svg width="126" height="47" viewBox="0 0 126 47" fill="none" xmlns="http://www.w3.org/2000/svg">
<path d="M40.916 16.4485C40.916 18.49 40.5266 20.2895 39.7479 21.8471C38.9902 23.4047 37.9589 24.7622 36.6539 25.9197C35.3701 27.0563 33.8862 28.0139 32.2024 28.7928C30.5186 29.5503 28.7613 30.1608 26.9301 30.6238C25.0989 31.0869 23.2573 31.4131 21.4051 31.6025C19.574 31.7919 17.8482 31.8866 16.2275 31.8866C14.9857 31.8866 13.7544 31.8656 12.5337 31.8236C11.3129 31.7814 10.0817 31.6762 8.83989 31.5078L8.71367 45.6517L0.568285 45.7147C0.610366 38.306 0.557751 30.9395 0.410427 23.6151C0.263088 16.2696 0.126284 8.89242 0 1.48375C1.49437 1.18916 3.07291 0.947098 4.73565 0.757571C6.39839 0.568178 8.08218 0.420813 9.78698 0.31561C11.4918 0.189393 13.1862 0.105204 14.87 0.0630418C16.5538 0.0210145 18.1639 0 19.7003 0C21.3841 0 23.0784 0.136725 24.7832 0.410306C26.4881 0.684023 28.1193 1.10497 29.6767 1.67315C31.2553 2.24146 32.7287 2.96764 34.0967 3.85156C35.4648 4.73562 36.6539 5.78792 37.6642 7.00873C38.6745 8.22941 39.4638 9.62911 40.0321 11.2077C40.6213 12.7651 40.916 14.5121 40.916 16.4485ZM14.87 3.18856C13.7966 3.18856 12.7126 3.2097 11.6181 3.25173C10.5447 3.29389 9.47124 3.37808 8.39793 3.5043L8.90306 28.3823C9.89232 28.5296 10.892 28.6138 11.9022 28.6349C12.9125 28.6559 13.9439 28.6664 14.9962 28.6664C16.4064 28.6664 17.8061 28.5822 19.1952 28.4139C20.6054 28.2455 21.9419 27.9719 23.2048 27.593C24.4676 27.193 25.6356 26.6774 26.7091 26.046C27.7825 25.3935 28.7086 24.5938 29.4873 23.6466C30.2872 22.6785 30.908 21.563 31.35 20.3002C31.7921 19.0162 32.013 17.5324 32.013 15.8486C32.013 14.291 31.7709 12.902 31.2869 11.6812C30.8028 10.4395 30.1398 9.35553 29.2979 8.42945C28.477 7.48222 27.5089 6.68248 26.3934 6.02998C25.2778 5.35647 24.0887 4.8093 22.8258 4.38836C21.563 3.96741 20.2475 3.66217 18.8794 3.47278C17.5324 3.28325 16.1959 3.18856 14.87 3.18856ZM61.5951 36.4645C59.9323 36.4645 58.2801 36.254 56.6385 35.833C55.0178 35.3911 53.5445 34.6965 52.2184 33.7493C52.2395 34.5702 52.2921 35.4121 52.3763 36.275C52.4605 37.138 52.5974 37.9799 52.7868 38.8007C52.9973 39.6005 53.2604 40.3582 53.576 41.0738C53.9127 41.7895 54.3337 42.4208 54.8388 42.9681C55.3651 43.4943 55.986 43.9152 56.7016 44.2309C57.4382 44.5467 58.3117 44.7044 59.322 44.7044C60.2691 44.7044 61.153 44.5361 61.9739 44.1993C62.7948 43.8415 63.5103 43.368 64.1208 42.7787C64.7522 42.1894 65.2678 41.4947 65.6677 40.695C66.0677 39.8951 66.3412 39.0322 66.4886 38.1061L74.2551 39.8426C73.6447 41.1475 72.7817 42.2524 71.6662 43.1575C70.5717 44.0626 69.3511 44.7888 68.004 45.3359C66.657 45.9042 65.2468 46.3147 63.7735 46.5672C62.3212 46.8198 60.9216 46.946 59.5746 46.946C57.1541 46.946 54.9967 46.5883 53.1025 45.8726C51.2082 45.157 49.6086 44.1258 48.3037 42.7787C47.0197 41.4317 46.0306 39.8004 45.3359 37.8852C44.6624 35.9487 44.3257 33.781 44.3257 31.3815C44.3257 29.0452 44.7256 26.8458 45.5255 24.7832C46.3252 22.6995 47.4408 20.8895 48.8719 19.3529C50.3032 17.8165 52.0185 16.6063 54.0181 15.7223C56.0386 14.8173 58.2591 14.3647 60.6795 14.3647C62.4475 14.3647 64.205 14.5858 65.9518 15.0277C67.6988 15.4487 69.2669 16.1222 70.6559 17.0483C72.0451 17.9534 73.1606 19.1215 74.0025 20.5527C74.8654 21.9839 75.2968 23.7098 75.2968 25.7303C75.2968 27.7088 74.897 29.382 74.0972 30.7501C73.3185 32.0972 72.2872 33.2021 71.0032 34.0651C69.7193 34.9069 68.2566 35.5173 66.6148 35.8962C64.9732 36.275 63.2999 36.4645 61.5951 36.4645ZM60.2376 16.701C59.2693 16.701 58.4064 16.9009 57.6487 17.3009C56.912 17.6798 56.249 18.2059 55.6597 18.8794C55.0914 19.553 54.6074 20.3212 54.2075 21.1841C53.8075 22.047 53.4708 22.952 53.1972 23.8991C52.9236 24.8464 52.7131 25.804 52.5657 26.7722C52.4185 27.7403 52.3238 28.6454 52.2816 29.4873C53.0813 30.8553 54.1443 31.9813 55.4703 32.8654C56.7963 33.7283 58.3327 34.1597 60.0797 34.1597C61.1952 34.1597 62.195 33.9072 63.0789 33.402C63.9629 32.8759 64.7101 32.2024 65.3205 31.3815C65.9308 30.5606 66.3939 29.6452 66.7095 28.6349C67.0463 27.6246 67.2147 26.6144 67.2147 25.6041C67.2147 24.5938 67.0674 23.5624 66.7727 22.5101C66.4781 21.4366 66.036 20.479 65.4467 19.6371C64.8785 18.7741 64.1523 18.0691 63.2684 17.5219C62.4054 16.9746 61.3951 16.701 60.2376 16.701ZM91.7769 1.29436L91.3982 14.2385H98.8804V16.8904H91.335L90.4826 45.5253L84.6735 46.0621L84.0737 16.8904H76.3071V14.2385H84.0105L83.8211 3.31491L91.7769 1.29436Z" fill="#ECFFFD"/>
<path d="M117.507 11.6496L117.002 20.9C118.581 20.8368 120.138 20.7526 121.675 20.6474C123.232 20.5422 124.674 20.3843 126 20.1738V23.3625C125.39 23.3203 124.695 23.2783 123.916 23.2362C123.159 23.1941 122.369 23.1519 121.548 23.1099C120.728 23.0679 119.907 23.0362 119.086 23.0152C118.286 22.9942 117.549 22.973 116.876 22.952L116.339 32.9916L111.193 33.6231L110.151 23.0784C108.594 23.1836 107.057 23.3203 105.542 23.4887C104.048 23.6571 102.711 23.8886 101.532 24.1833V20.963C101.996 20.9841 102.553 21.0052 103.206 21.0262C103.858 21.0262 104.532 21.0367 105.226 21.0578C105.942 21.0578 106.626 21.0683 107.278 21.0893C107.952 21.0893 108.52 21.0893 108.983 21.0893H109.962L109.109 12.281L117.507 11.6496Z" fill="#ECFFFD"/>
</svg>
